# xmcd CD database file
#
# Track frame offsets:
#	150
#	17557
#	41562
#	56512
#	80515
#	96867
#	119615
#	146315
#	168505
#	193627
#	228145
#	249770
#
# Disc length: 3528 seconds
#
# Revision: 1
# Processed by: cddbd v1.5PL3 Copyright (c) Steve Scherf et al.
# Submitted via: CDex 1.51
#
DISCID=910dc60c
DTITLE=Bryan Lee - Crawfish Lady
DYEAR=2000
DGENRE=Blues-Rock
TTITLE0=Palace Of The King
TTITLE1=Louisiana Woman
TTITLE2=Can't Get Enough
TTITLE3=Crawfish Lady
TTITLE4=Why Did You Do It?
TTITLE5=What You Gonna Do?
TTITLE6=Noize With The Boyz
TTITLE7=Sweet And Beautiful
TTITLE8=Something's Wrong
TTITLE9=Winehead Woman
TTITLE10=Chitlin's
TTITLE11=Kiss My Ass For A Change
EXTD=YEAR: 2000
EXTT0=
EXTT1=
EXTT2=
EXTT3=
EXTT4=
EXTT5=
EXTT6=
EXTT7=
EXTT8=
EXTT9=
EXTT10=
EXTT11=
PLAYORDER=
